<svg xmlns="http://www.w3.org/2000/svg" xmlns:xlink="http://www.w3.org/1999/xlink" width="3200" zoomAndPan="magnify" viewBox="0 0 2400 2400.000007" height="3200" preserveAspectRatio="xMidYMid meet" version="1.0"><defs><clipPath id="042b438f0f"><path d="M 862.640625 1593.085938 L 1035.070312 1593.085938 L 1035.070312 1765.515625 L 862.640625 1765.515625 Z M 862.640625 1593.085938 " clip-rule="nonzero"/></clipPath><clipPath id="84fa621226"><path d="M 898 1605 L 1000 1605 L 1000 1754 L 898 1754 Z M 898 1605 " clip-rule="nonzero"/></clipPath><clipPath id="b3fee49b02"><path d="M 977.316406 1649.324219 C 973.121094 1642.386719 961.1875 1637.078125 950.082031 1637.078125 C 936.691406 1637.078125 924.445312 1640.960938 924.445312 1652.238281 C 924.445312 1662.886719 937.179688 1664.796875 950.710938 1666.425781 C 974.234375 1669.308594 999.382812 1673.503906 999.382812 1701.882812 C 999.382812 1723.636719 981.171875 1735.882812 961.1875 1737.335938 L 961.1875 1753.46875 L 940.71875 1753.46875 L 940.71875 1738.164062 C 922.675781 1736.566406 905.890625 1728.34375 898.324219 1710.617188 L 917.339844 1702.566406 C 921.675781 1712.871094 936.035156 1719.496094 949.425781 1719.496094 C 963.929688 1719.496094 977.316406 1714.5 977.316406 1701.9375 C 977.316406 1691.289062 963.929688 1687.4375 948.941406 1685.667969 C 925.902344 1683.097656 903.320312 1679.070312 903.320312 1652.292969 C 903.320312 1631.167969 922.019531 1621.519531 940.71875 1619.265625 L 940.71875 1605.246094 L 961.1875 1605.246094 L 961.1875 1619.179688 C 974.890625 1621.261719 987.449219 1626.429688 994.703125 1641.246094 Z M 977.316406 1649.324219 " clip-rule="nonzero"/></clipPath><linearGradient x1="392.999901" gradientTransform="matrix(0.285477, 0, 0, 0.285477, 786.132714, 1544.383811)" y1="472.62799" x2="746.999883" gradientUnits="userSpaceOnUse" y2="472.62799" id="89ac258fb0"><stop stop-opacity="1" stop-color="rgb(87.098694%, 88.999939%, 90.19928%)" offset="0"/><stop stop-opacity="1" stop-color="rgb(87.145996%, 89.03656%, 90.197754%)" offset="0.0078125"/><stop stop-opacity="1" stop-color="rgb(87.397766%, 89.234924%, 90.190125%)" offset="0.0117188"/><stop stop-opacity="1" stop-color="rgb(87.602234%, 89.396667%, 90.184021%)" offset="0.015625"/><stop stop-opacity="1" stop-color="rgb(87.805176%, 89.556885%, 90.176392%)" offset="0.0195312"/><stop stop-opacity="1" stop-color="rgb(88.009644%, 89.718628%, 90.170288%)" offset="0.0234375"/><stop stop-opacity="1" stop-color="rgb(88.214111%, 89.880371%, 90.164185%)" offset="0.0273437"/><stop stop-opacity="1" stop-color="rgb(88.418579%, 90.042114%, 90.158081%)" offset="0.03125"/><stop stop-opacity="1" stop-color="rgb(88.621521%, 90.202332%, 90.151978%)" offset="0.0351562"/><stop stop-opacity="1" stop-color="rgb(88.825989%, 90.364075%, 90.145874%)" offset="0.0390625"/><stop stop-opacity="1" stop-color="rgb(89.028931%, 90.525818%, 90.139771%)" offset="0.0429688"/><stop stop-opacity="1" stop-color="rgb(89.233398%, 90.687561%, 90.133667%)" offset="0.046875"/><stop stop-opacity="1" stop-color="rgb(89.437866%, 90.847778%, 90.126038%)" offset="0.0507812"/><stop stop-opacity="1" stop-color="rgb(89.642334%, 91.009521%, 90.119934%)" offset="0.0546875"/><stop stop-opacity="1" stop-color="rgb(89.845276%, 91.171265%, 90.113831%)" offset="0.0585938"/><stop stop-opacity="1" stop-color="rgb(90.049744%, 91.333008%, 90.107727%)" offset="0.0625"/><stop stop-opacity="1" stop-color="rgb(90.254211%, 91.493225%, 90.101624%)" offset="0.0664062"/><stop stop-opacity="1" stop-color="rgb(90.458679%, 91.654968%, 90.09552%)" offset="0.0703125"/><stop stop-opacity="1" stop-color="rgb(90.661621%, 91.815186%, 90.087891%)" offset="0.0742188"/><stop stop-opacity="1" stop-color="rgb(90.866089%, 91.976929%, 90.081787%)" offset="0.078125"/><stop stop-opacity="1" stop-color="rgb(91.069031%, 92.138672%, 90.075684%)" offset="0.0820312"/><stop stop-opacity="1" stop-color="rgb(91.273499%, 92.300415%, 90.06958%)" offset="0.0859375"/><stop stop-opacity="1" stop-color="rgb(91.477966%, 92.460632%, 90.063477%)" offset="0.0898438"/><stop stop-opacity="1" stop-color="rgb(91.682434%, 92.622375%, 90.057373%)" offset="0.09375"/><stop stop-opacity="1" stop-color="rgb(91.885376%, 92.784119%, 90.05127%)" offset="0.0976562"/><stop stop-opacity="1" stop-color="rgb(92.089844%, 92.945862%, 90.045166%)" offset="0.101563"/><stop stop-opacity="1" stop-color="rgb(92.294312%, 93.106079%, 90.037537%)" offset="0.105469"/><stop stop-opacity="1" stop-color="rgb(92.498779%, 93.267822%, 90.031433%)" offset="0.109375"/><stop stop-opacity="1" stop-color="rgb(92.701721%, 93.429565%, 90.02533%)" offset="0.113281"/><stop stop-opacity="1" stop-color="rgb(92.906189%, 93.591309%, 90.019226%)" offset="0.117187"/><stop stop-opacity="1" stop-color="rgb(93.109131%, 93.751526%, 90.013123%)" offset="0.121094"/><stop stop-opacity="1" stop-color="rgb(93.313599%, 93.913269%, 90.007019%)" offset="0.125"/><stop stop-opacity="1" stop-color="rgb(93.518066%, 94.075012%, 89.99939%)" offset="0.128906"/><stop stop-opacity="1" stop-color="rgb(93.722534%, 94.236755%, 89.993286%)" offset="0.132812"/><stop stop-opacity="1" stop-color="rgb(93.925476%, 94.396973%, 89.987183%)" offset="0.136719"/><stop stop-opacity="1" stop-color="rgb(94.129944%, 94.558716%, 89.981079%)" offset="0.140625"/><stop stop-opacity="1" stop-color="rgb(94.334412%, 94.718933%, 89.974976%)" offset="0.144531"/><stop stop-opacity="1" stop-color="rgb(94.538879%, 94.880676%, 89.968872%)" offset="0.148437"/><stop stop-opacity="1" stop-color="rgb(94.741821%, 95.042419%, 89.962769%)" offset="0.152344"/><stop stop-opacity="1" stop-color="rgb(94.946289%, 95.204163%, 89.956665%)" offset="0.15625"/><stop stop-opacity="1" stop-color="rgb(95.149231%, 95.36438%, 89.949036%)" offset="0.160156"/><stop stop-opacity="1" stop-color="rgb(95.353699%, 95.526123%, 89.942932%)" offset="0.164062"/><stop stop-opacity="1" stop-color="rgb(95.558167%, 95.687866%, 89.936829%)" offset="0.167969"/><stop stop-opacity="1" stop-color="rgb(95.762634%, 95.849609%, 89.930725%)" offset="0.171875"/><stop stop-opacity="1" stop-color="rgb(95.965576%, 96.009827%, 89.924622%)" offset="0.175781"/><stop stop-opacity="1" stop-color="rgb(96.170044%, 96.17157%, 89.918518%)" offset="0.179687"/><stop stop-opacity="1" stop-color="rgb(96.374512%, 96.333313%, 89.910889%)" offset="0.183594"/><stop stop-opacity="1" stop-color="rgb(96.578979%, 96.495056%, 89.904785%)" offset="0.1875"/><stop stop-opacity="1" stop-color="rgb(96.781921%, 96.655273%, 89.898682%)" offset="0.191406"/><stop stop-opacity="1" stop-color="rgb(96.986389%, 96.817017%, 89.892578%)" offset="0.195312"/><stop stop-opacity="1" stop-color="rgb(97.189331%, 96.977234%, 89.886475%)" offset="0.199219"/><stop stop-opacity="1" stop-color="rgb(97.393799%, 97.138977%, 89.880371%)" offset="0.203125"/><stop stop-opacity="1" stop-color="rgb(97.598267%, 97.30072%, 89.872742%)" offset="0.207031"/><stop stop-opacity="1" stop-color="rgb(97.802734%, 97.462463%, 89.866638%)" offset="0.210937"/><stop stop-opacity="1" stop-color="rgb(98.005676%, 97.622681%, 89.860535%)" offset="0.214844"/><stop stop-opacity="1" stop-color="rgb(98.210144%, 97.784424%, 89.854431%)" offset="0.21875"/><stop stop-opacity="1" stop-color="rgb(98.414612%, 97.946167%, 89.848328%)" offset="0.222656"/><stop stop-opacity="1" stop-color="rgb(98.61908%, 98.10791%, 89.842224%)" offset="0.226562"/><stop stop-opacity="1" stop-color="rgb(98.822021%, 98.268127%, 89.836121%)" offset="0.230469"/><stop stop-opacity="1" stop-color="rgb(99.026489%, 98.429871%, 89.830017%)" offset="0.234375"/><stop stop-opacity="1" stop-color="rgb(99.229431%, 98.591614%, 89.822388%)" offset="0.238281"/><stop stop-opacity="1" stop-color="rgb(99.433899%, 98.753357%, 89.816284%)" offset="0.242187"/><stop stop-opacity="1" stop-color="rgb(99.638367%, 98.913574%, 89.810181%)" offset="0.246094"/><stop stop-opacity="1" stop-color="rgb(99.842834%, 99.075317%, 89.804077%)" offset="0.25"/><stop stop-opacity="1" stop-color="rgb(99.819946%, 99.023438%, 89.715576%)" offset="0.257812"/><stop stop-opacity="1" stop-color="rgb(99.636841%, 98.786926%, 89.486694%)" offset="0.265625"/><stop stop-opacity="1" stop-color="rgb(99.311829%, 98.419189%, 89.205933%)" offset="0.273438"/><stop stop-opacity="1" stop-color="rgb(98.986816%, 98.049927%, 88.925171%)" offset="0.28125"/><stop stop-opacity="1" stop-color="rgb(98.66333%, 97.68219%, 88.644409%)" offset="0.289062"/><stop stop-opacity="1" stop-color="rgb(98.338318%, 97.312927%, 88.363647%)" offset="0.296875"/><stop stop-opacity="1" stop-color="rgb(98.013306%, 96.94519%, 88.082886%)" offset="0.304688"/><stop stop-opacity="1" stop-color="rgb(97.688293%, 96.575928%, 87.802124%)" offset="0.3125"/><stop stop-opacity="1" stop-color="rgb(97.364807%, 96.206665%, 87.521362%)" offset="0.320312"/><stop stop-opacity="1" stop-color="rgb(97.039795%, 95.838928%, 87.240601%)" offset="0.328125"/><stop stop-opacity="1" stop-color="rgb(96.714783%, 95.469666%, 86.961365%)" offset="0.335937"/><stop stop-opacity="1" stop-color="rgb(96.389771%, 95.101929%, 86.680603%)" offset="0.34375"/><stop stop-opacity="1" stop-color="rgb(96.066284%, 94.732666%, 86.399841%)" offset="0.351562"/><stop stop-opacity="1" stop-color="rgb(95.741272%, 94.363403%, 86.11908%)" offset="0.359375"/><stop stop-opacity="1" stop-color="rgb(95.41626%, 93.995667%, 85.838318%)" offset="0.367187"/><stop stop-opacity="1" stop-color="rgb(95.091248%, 93.626404%, 85.557556%)" offset="0.375"/><stop stop-opacity="1" stop-color="rgb(94.767761%, 93.258667%, 85.276794%)" offset="0.382812"/><stop stop-opacity="1" stop-color="rgb(94.442749%, 92.889404%, 84.996033%)" offset="0.390625"/><stop stop-opacity="1" stop-color="rgb(94.102478%, 92.498779%, 84.700012%)" offset="0.394531"/><stop stop-opacity="1" stop-color="rgb(93.925476%, 92.292786%, 84.545898%)" offset="0.398437"/><stop stop-opacity="1" stop-color="rgb(93.727112%, 92.056274%, 84.370422%)" offset="0.402344"/><stop stop-opacity="1" stop-color="rgb(93.528748%, 91.821289%, 84.194946%)" offset="0.40625"/><stop stop-opacity="1" stop-color="rgb(93.330383%, 91.586304%, 84.01947%)" offset="0.410156"/><stop stop-opacity="1" stop-color="rgb(93.132019%, 91.351318%, 83.84552%)" offset="0.414062"/><stop stop-opacity="1" stop-color="rgb(92.933655%, 91.116333%, 83.670044%)" offset="0.417969"/><stop stop-opacity="1" stop-color="rgb(92.735291%, 90.881348%, 83.496094%)" offset="0.421875"/><stop stop-opacity="1" stop-color="rgb(92.536926%, 90.646362%, 83.320618%)" offset="0.425781"/><stop stop-opacity="1" stop-color="rgb(92.338562%, 90.411377%, 83.146667%)" offset="0.429688"/><stop stop-opacity="1" stop-color="rgb(92.140198%, 90.176392%, 82.971191%)" offset="0.433594"/><stop stop-opacity="1" stop-color="rgb(91.941833%, 89.941406%, 82.795715%)" offset="0.4375"/><stop stop-opacity="1" stop-color="rgb(91.743469%, 89.704895%, 82.620239%)" offset="0.441406"/><stop stop-opacity="1" stop-color="rgb(91.546631%, 89.46991%, 82.446289%)" offset="0.445312"/><stop stop-opacity="1" stop-color="rgb(91.348267%, 89.234924%, 82.270813%)" offset="0.449219"/><stop stop-opacity="1" stop-color="rgb(91.149902%, 88.999939%, 82.096863%)" offset="0.453125"/><stop stop-opacity="1" stop-color="rgb(90.951538%, 88.764954%, 81.921387%)" offset="0.457031"/><stop stop-opacity="1" stop-color="rgb(90.753174%, 88.529968%, 81.747437%)" offset="0.460937"/><stop stop-opacity="1" stop-color="rgb(90.55481%, 88.294983%, 81.57196%)" offset="0.464844"/><stop stop-opacity="1" stop-color="rgb(90.356445%, 88.059998%, 81.396484%)" offset="0.46875"/><stop stop-opacity="1" stop-color="rgb(90.158081%, 87.825012%, 81.221008%)" offset="0.472656"/><stop stop-opacity="1" stop-color="rgb(89.959717%, 87.590027%, 81.047058%)" offset="0.476562"/><stop stop-opacity="1" stop-color="rgb(89.761353%, 87.353516%, 80.871582%)" offset="0.480469"/><stop stop-opacity="1" stop-color="rgb(89.564514%, 87.11853%, 80.697632%)" offset="0.484375"/><stop stop-opacity="1" stop-color="rgb(89.36615%, 86.883545%, 80.522156%)" offset="0.488281"/><stop stop-opacity="1" stop-color="rgb(89.167786%, 86.64856%, 80.348206%)" offset="0.492187"/><stop stop-opacity="1" stop-color="rgb(88.969421%, 86.413574%, 80.172729%)" offset="0.496094"/><stop stop-opacity="1" stop-color="rgb(88.771057%, 86.178589%, 79.997253%)" offset="0.5"/><stop stop-opacity="1" stop-color="rgb(88.572693%, 85.943604%, 79.821777%)" offset="0.503906"/><stop stop-opacity="1" stop-color="rgb(88.374329%, 85.708618%, 79.647827%)" offset="0.507812"/><stop stop-opacity="1" stop-color="rgb(88.175964%, 85.472107%, 79.472351%)" offset="0.511719"/><stop stop-opacity="1" stop-color="rgb(87.9776%, 85.237122%, 79.298401%)" offset="0.515625"/><stop stop-opacity="1" stop-color="rgb(87.779236%, 85.002136%, 79.122925%)" offset="0.519531"/><stop stop-opacity="1" stop-color="rgb(87.580872%, 84.767151%, 78.948975%)" offset="0.523438"/><stop stop-opacity="1" stop-color="rgb(87.382507%, 84.532166%, 78.773499%)" offset="0.527344"/><stop stop-opacity="1" stop-color="rgb(87.185669%, 84.29718%, 78.598022%)" offset="0.53125"/><stop stop-opacity="1" stop-color="rgb(86.987305%, 84.062195%, 78.422546%)" offset="0.535156"/><stop stop-opacity="1" stop-color="rgb(86.78894%, 83.827209%, 78.248596%)" offset="0.539062"/><stop stop-opacity="1" stop-color="rgb(86.590576%, 83.592224%, 78.07312%)" offset="0.542969"/><stop stop-opacity="1" stop-color="rgb(86.392212%, 83.357239%, 77.89917%)" offset="0.546875"/><stop stop-opacity="1" stop-color="rgb(86.193848%, 83.120728%, 77.723694%)" offset="0.550781"/><stop stop-opacity="1" stop-color="rgb(85.995483%, 82.885742%, 77.549744%)" offset="0.554687"/><stop stop-opacity="1" stop-color="rgb(85.797119%, 82.650757%, 77.374268%)" offset="0.558594"/><stop stop-opacity="1" stop-color="rgb(85.598755%, 82.415771%, 77.198792%)" offset="0.5625"/><stop stop-opacity="1" stop-color="rgb(85.400391%, 82.180786%, 77.023315%)" offset="0.566406"/><stop stop-opacity="1" stop-color="rgb(85.203552%, 81.945801%, 76.849365%)" offset="0.570312"/><stop stop-opacity="1" stop-color="rgb(85.005188%, 81.710815%, 76.673889%)" offset="0.574219"/><stop stop-opacity="1" stop-color="rgb(84.806824%, 81.47583%, 76.499939%)" offset="0.578125"/><stop stop-opacity="1" stop-color="rgb(84.608459%, 81.239319%, 76.324463%)" offset="0.582031"/><stop stop-opacity="1" stop-color="rgb(84.410095%, 81.004333%, 76.150513%)" offset="0.585938"/><stop stop-opacity="1" stop-color="rgb(84.211731%, 80.769348%, 75.975037%)" offset="0.589844"/><stop stop-opacity="1" stop-color="rgb(84.013367%, 80.534363%, 75.799561%)" offset="0.59375"/><stop stop-opacity="1" stop-color="rgb(84.088135%, 80.648804%, 76.00708%)" offset="0.597656"/><stop stop-opacity="1" stop-color="rgb(84.162903%, 80.764771%, 76.2146%)" offset="0.601562"/><stop stop-opacity="1" stop-color="rgb(84.347534%, 81.021118%, 76.576233%)" offset="0.605469"/><stop stop-opacity="1" stop-color="rgb(84.532166%, 81.278992%, 76.937866%)" offset="0.609375"/><stop stop-opacity="1" stop-color="rgb(84.716797%, 81.535339%, 77.2995%)" offset="0.613281"/><stop stop-opacity="1" stop-color="rgb(84.902954%, 81.793213%, 77.661133%)" offset="0.617188"/><stop stop-opacity="1" stop-color="rgb(85.087585%, 82.049561%, 78.022766%)" offset="0.621094"/><stop stop-opacity="1" stop-color="rgb(85.272217%, 82.307434%, 78.385925%)" offset="0.625"/><stop stop-opacity="1" stop-color="rgb(85.456848%, 82.563782%, 78.747559%)" offset="0.628906"/><stop stop-opacity="1" stop-color="rgb(85.643005%, 82.821655%, 79.109192%)" offset="0.632812"/><stop stop-opacity="1" stop-color="rgb(85.827637%, 83.078003%, 79.470825%)" offset="0.636719"/><stop stop-opacity="1" stop-color="rgb(86.013794%, 83.334351%, 79.832458%)" offset="0.640625"/><stop stop-opacity="1" stop-color="rgb(86.198425%, 83.590698%, 80.194092%)" offset="0.644531"/><stop stop-opacity="1" stop-color="rgb(86.383057%, 83.848572%, 80.557251%)" offset="0.648438"/><stop stop-opacity="1" stop-color="rgb(86.567688%, 84.104919%, 80.918884%)" offset="0.652344"/><stop stop-opacity="1" stop-color="rgb(86.753845%, 84.362793%, 81.280518%)" offset="0.65625"/><stop stop-opacity="1" stop-color="rgb(86.938477%, 84.619141%, 81.642151%)" offset="0.660156"/><stop stop-opacity="1" stop-color="rgb(87.123108%, 84.877014%, 82.003784%)" offset="0.664062"/><stop stop-opacity="1" stop-color="rgb(87.307739%, 85.133362%, 82.365417%)" offset="0.667969"/><stop stop-opacity="1" stop-color="rgb(87.493896%, 85.391235%, 82.727051%)" offset="0.671875"/><stop stop-opacity="1" stop-color="rgb(87.678528%, 85.647583%, 83.088684%)" offset="0.675781"/><stop stop-opacity="1" stop-color="rgb(87.863159%, 85.905457%, 83.451843%)" offset="0.679688"/><stop stop-opacity="1" stop-color="rgb(88.047791%, 86.161804%, 83.813477%)" offset="0.683594"/><stop stop-opacity="1" stop-color="rgb(88.233948%, 86.419678%, 84.17511%)" offset="0.6875"/><stop stop-opacity="1" stop-color="rgb(88.418579%, 86.676025%, 84.536743%)" offset="0.691406"/><stop stop-opacity="1" stop-color="rgb(88.60321%, 86.932373%, 84.898376%)" offset="0.695313"/><stop stop-opacity="1" stop-color="rgb(88.787842%, 87.188721%, 85.26001%)" offset="0.699219"/><stop stop-opacity="1" stop-color="rgb(88.973999%, 87.446594%, 85.621643%)" offset="0.703125"/><stop stop-opacity="1" stop-color="rgb(89.15863%, 87.702942%, 85.983276%)" offset="0.707031"/><stop stop-opacity="1" stop-color="rgb(89.343262%, 87.960815%, 86.346436%)" offset="0.710938"/><stop stop-opacity="1" stop-color="rgb(89.527893%, 88.217163%, 86.708069%)" offset="0.714844"/><stop stop-opacity="1" stop-color="rgb(89.71405%, 88.475037%, 87.069702%)" offset="0.71875"/><stop stop-opacity="1" stop-color="rgb(89.898682%, 88.731384%, 87.431335%)" offset="0.722656"/><stop stop-opacity="1" stop-color="rgb(90.083313%, 88.989258%, 87.792969%)" offset="0.726562"/><stop stop-opacity="1" stop-color="rgb(90.267944%, 89.245605%, 88.154602%)" offset="0.730469"/><stop stop-opacity="1" stop-color="rgb(90.454102%, 89.503479%, 88.517761%)" offset="0.734375"/><stop stop-opacity="1" stop-color="rgb(90.638733%, 89.759827%, 88.879395%)" offset="0.738281"/><stop stop-opacity="1" stop-color="rgb(90.823364%, 90.016174%, 89.241028%)" offset="0.742188"/><stop stop-opacity="1" stop-color="rgb(91.007996%, 90.272522%, 89.602661%)" offset="0.746094"/><stop stop-opacity="1" stop-color="rgb(91.194153%, 90.530396%, 89.964294%)" offset="0.75"/><stop stop-opacity="1" stop-color="rgb(91.378784%, 90.786743%, 90.325928%)" offset="0.753906"/><stop stop-opacity="1" stop-color="rgb(91.563416%, 91.044617%, 90.687561%)" offset="0.757812"/><stop stop-opacity="1" stop-color="rgb(91.748047%, 91.300964%, 91.049194%)" offset="0.761719"/><stop stop-opacity="1" stop-color="rgb(91.934204%, 91.558838%, 91.412354%)" offset="0.765625"/><stop stop-opacity="1" stop-color="rgb(92.118835%, 91.815186%, 91.773987%)" offset="0.769531"/><stop stop-opacity="1" stop-color="rgb(92.303467%, 92.073059%, 92.13562%)" offset="0.773438"/><stop stop-opacity="1" stop-color="rgb(92.488098%, 92.329407%, 92.497253%)" offset="0.777344"/><stop stop-opacity="1" stop-color="rgb(92.674255%, 92.58728%, 92.858887%)" offset="0.78125"/><stop stop-opacity="1" stop-color="rgb(92.727661%, 92.675781%, 92.935181%)" offset="0.789062"/><stop stop-opacity="1" stop-color="rgb(92.631531%, 92.591858%, 92.648315%)" offset="0.792969"/><stop stop-opacity="1" stop-color="rgb(92.481995%, 92.420959%, 92.28363%)" offset="0.796875"/><stop stop-opacity="1" stop-color="rgb(92.332458%, 92.248535%, 91.917419%)" offset="0.800781"/><stop stop-opacity="1" stop-color="rgb(92.182922%, 92.077637%, 91.552734%)" offset="0.804687"/><stop stop-opacity="1" stop-color="rgb(92.033386%, 91.906738%, 91.188049%)" offset="0.808594"/><stop stop-opacity="1" stop-color="rgb(91.88385%, 91.73584%, 90.823364%)" offset="0.8125"/><stop stop-opacity="1" stop-color="rgb(91.734314%, 91.563416%, 90.457153%)" offset="0.816406"/><stop stop-opacity="1" stop-color="rgb(91.584778%, 91.392517%, 90.092468%)" offset="0.820312"/><stop stop-opacity="1" stop-color="rgb(91.435242%, 91.220093%, 89.727783%)" offset="0.824219"/><stop stop-opacity="1" stop-color="rgb(91.285706%, 91.049194%, 89.363098%)" offset="0.828125"/><stop stop-opacity="1" stop-color="rgb(91.134644%, 90.87677%, 88.996887%)" offset="0.832031"/><stop stop-opacity="1" stop-color="rgb(90.985107%, 90.705872%, 88.632202%)" offset="0.835938"/><stop stop-opacity="1" stop-color="rgb(90.835571%, 90.533447%, 88.265991%)" offset="0.839844"/><stop stop-opacity="1" stop-color="rgb(90.686035%, 90.362549%, 87.901306%)" offset="0.84375"/><stop stop-opacity="1" stop-color="rgb(90.536499%, 90.190125%, 87.536621%)" offset="0.847656"/><stop stop-opacity="1" stop-color="rgb(90.386963%, 90.019226%, 87.171936%)" offset="0.851562"/><stop stop-opacity="1" stop-color="rgb(90.237427%, 89.846802%, 86.805725%)" offset="0.855469"/><stop stop-opacity="1" stop-color="rgb(90.087891%, 89.675903%, 86.44104%)" offset="0.859375"/><stop stop-opacity="1" stop-color="rgb(89.938354%, 89.503479%, 86.076355%)" offset="0.863281"/><stop stop-opacity="1" stop-color="rgb(89.788818%, 89.332581%, 85.71167%)" offset="0.867188"/><stop stop-opacity="1" stop-color="rgb(89.637756%, 89.160156%, 85.345459%)" offset="0.871094"/><stop stop-opacity="1" stop-color="rgb(89.48822%, 88.989258%, 84.980774%)" offset="0.875"/><stop stop-opacity="1" stop-color="rgb(89.338684%, 88.818359%, 84.616089%)" offset="0.878906"/><stop stop-opacity="1" stop-color="rgb(89.189148%, 88.647461%, 84.251404%)" offset="0.882812"/><stop stop-opacity="1" stop-color="rgb(89.039612%, 88.475037%, 83.885193%)" offset="0.886719"/><stop stop-opacity="1" stop-color="rgb(88.890076%, 88.304138%, 83.520508%)" offset="0.890625"/><stop stop-opacity="1" stop-color="rgb(88.74054%, 88.131714%, 83.155823%)" offset="0.894531"/><stop stop-opacity="1" stop-color="rgb(88.591003%, 87.960815%, 82.791138%)" offset="0.898438"/><stop stop-opacity="1" stop-color="rgb(88.441467%, 87.788391%, 82.424927%)" offset="0.902344"/><stop stop-opacity="1" stop-color="rgb(88.291931%, 87.617493%, 82.060242%)" offset="0.90625"/><stop stop-opacity="1" stop-color="rgb(88.142395%, 87.445068%, 81.695557%)" offset="0.910156"/><stop stop-opacity="1" stop-color="rgb(87.992859%, 87.27417%, 81.330872%)" offset="0.914062"/><stop stop-opacity="1" stop-color="rgb(87.841797%, 87.101746%, 80.964661%)" offset="0.917969"/><stop stop-opacity="1" stop-color="rgb(87.692261%, 86.930847%, 80.599976%)" offset="0.921875"/><stop stop-opacity="1" stop-color="rgb(87.542725%, 86.758423%, 80.235291%)" offset="0.925781"/><stop stop-opacity="1" stop-color="rgb(87.393188%, 86.587524%, 79.870605%)" offset="0.929688"/><stop stop-opacity="1" stop-color="rgb(87.243652%, 86.4151%, 79.504395%)" offset="0.933594"/><stop stop-opacity="1" stop-color="rgb(87.094116%, 86.244202%, 79.139709%)" offset="0.9375"/><stop stop-opacity="1" stop-color="rgb(86.94458%, 86.071777%, 78.775024%)" offset="0.941406"/><stop stop-opacity="1" stop-color="rgb(86.795044%, 85.900879%, 78.410339%)" offset="0.945313"/><stop stop-opacity="1" stop-color="rgb(86.645508%, 85.728455%, 78.044128%)" offset="0.949219"/><stop stop-opacity="1" stop-color="rgb(86.495972%, 85.557556%, 77.679443%)" offset="0.953125"/><stop stop-opacity="1" stop-color="rgb(86.34491%, 85.386658%, 77.314758%)" offset="0.957031"/><stop stop-opacity="1" stop-color="rgb(86.195374%, 85.215759%, 76.950073%)" offset="0.960938"/><stop stop-opacity="1" stop-color="rgb(86.045837%, 85.043335%, 76.583862%)" offset="0.964844"/><stop stop-opacity="1" stop-color="rgb(85.896301%, 84.872437%, 76.219177%)" offset="0.96875"/><stop stop-opacity="1" stop-color="rgb(85.746765%, 84.700012%, 75.854492%)" offset="0.972656"/><stop stop-opacity="1" stop-color="rgb(85.597229%, 84.529114%, 75.489807%)" offset="0.976562"/><stop stop-opacity="1" stop-color="rgb(85.447693%, 84.356689%, 75.123596%)" offset="0.980469"/><stop stop-opacity="1" stop-color="rgb(85.298157%, 84.185791%, 74.758911%)" offset="0.984375"/><stop stop-opacity="1" stop-color="rgb(85.148621%, 84.013367%, 74.394226%)" offset="0.988281"/><stop stop-opacity="1" stop-color="rgb(84.999084%, 83.842468%, 74.029541%)" offset="0.992188"/><stop stop-opacity="1" stop-color="rgb(84.849548%, 83.670044%, 73.66333%)" offset="0.996094"/><stop stop-opacity="1" stop-color="rgb(84.700012%, 83.499146%, 73.298645%)" offset="1"/></linearGradient><clipPath id="675f07052d"><path d="M 718 359.410156 L 2399 359.410156 L 2399 2039.460938 L 718 2039.460938 Z M 718 359.410156 " clip-rule="nonzero"/></clipPath></defs><g clip-path="url(#042b438f0f)"><path fill="#231f20" d="M 1035.070312 1679.300781 C 1035.070312 1680.710938 1035.035156 1682.121094 1034.964844 1683.53125 C 1034.894531 1684.941406 1034.792969 1686.347656 1034.652344 1687.75 C 1034.515625 1689.15625 1034.34375 1690.554688 1034.136719 1691.949219 C 1033.929688 1693.347656 1033.6875 1694.734375 1033.414062 1696.121094 C 1033.136719 1697.503906 1032.828125 1698.878906 1032.484375 1700.25 C 1032.140625 1701.617188 1031.765625 1702.976562 1031.355469 1704.328125 C 1030.945312 1705.675781 1030.503906 1707.015625 1030.027344 1708.34375 C 1029.554688 1709.671875 1029.046875 1710.988281 1028.507812 1712.292969 C 1027.964844 1713.597656 1027.394531 1714.886719 1026.792969 1716.160156 C 1026.1875 1717.4375 1025.554688 1718.695312 1024.886719 1719.941406 C 1024.222656 1721.1875 1023.527344 1722.414062 1022.804688 1723.625 C 1022.078125 1724.832031 1021.324219 1726.023438 1020.539062 1727.199219 C 1019.753906 1728.371094 1018.941406 1729.523438 1018.101562 1730.65625 C 1017.261719 1731.792969 1016.394531 1732.902344 1015.5 1733.992188 C 1014.605469 1735.085938 1013.683594 1736.152344 1012.734375 1737.199219 C 1011.789062 1738.242188 1010.816406 1739.265625 1009.816406 1740.261719 C 1008.820312 1741.261719 1007.796875 1742.234375 1006.753906 1743.179688 C 1005.707031 1744.128906 1004.640625 1745.050781 1003.546875 1745.945312 C 1002.457031 1746.839844 1001.34375 1747.707031 1000.210938 1748.546875 C 999.078125 1749.386719 997.925781 1750.199219 996.753906 1750.984375 C 995.578125 1751.769531 994.386719 1752.523438 993.175781 1753.25 C 991.96875 1753.972656 990.738281 1754.667969 989.496094 1755.335938 C 988.25 1756 986.992188 1756.632812 985.714844 1757.238281 C 984.441406 1757.839844 983.152344 1758.410156 981.847656 1758.953125 C 980.542969 1759.492188 979.226562 1760 977.898438 1760.476562 C 976.570312 1760.949219 975.230469 1761.390625 973.882812 1761.800781 C 972.53125 1762.210938 971.171875 1762.585938 969.804688 1762.929688 C 968.433594 1763.273438 967.058594 1763.582031 965.675781 1763.859375 C 964.289062 1764.132812 962.902344 1764.375 961.503906 1764.582031 C 960.109375 1764.789062 958.710938 1764.960938 957.304688 1765.097656 C 955.902344 1765.238281 954.496094 1765.339844 953.085938 1765.410156 C 951.675781 1765.480469 950.265625 1765.515625 948.855469 1765.515625 C 947.445312 1765.515625 946.035156 1765.480469 944.625 1765.410156 C 943.214844 1765.339844 941.808594 1765.238281 940.402344 1765.097656 C 939 1764.960938 937.601562 1764.789062 936.203125 1764.582031 C 934.808594 1764.375 933.417969 1764.132812 932.035156 1763.859375 C 930.652344 1763.582031 929.273438 1763.273438 927.90625 1762.929688 C 926.539062 1762.585938 925.179688 1762.210938 923.828125 1761.800781 C 922.476562 1761.390625 921.136719 1760.949219 919.808594 1760.476562 C 918.480469 1760 917.164062 1759.492188 915.863281 1758.953125 C 914.558594 1758.410156 913.269531 1757.839844 911.992188 1757.238281 C 910.71875 1756.632812 909.457031 1756 908.214844 1755.335938 C 906.96875 1754.667969 905.742188 1753.972656 904.53125 1753.25 C 903.320312 1752.523438 902.128906 1751.769531 900.957031 1750.984375 C 899.785156 1750.199219 898.628906 1749.386719 897.496094 1748.546875 C 896.363281 1747.707031 895.25 1746.839844 894.160156 1745.945312 C 893.070312 1745.050781 892.003906 1744.128906 890.957031 1743.179688 C 889.910156 1742.234375 888.890625 1741.261719 887.890625 1740.261719 C 886.894531 1739.265625 885.921875 1738.242188 884.972656 1737.199219 C 884.027344 1736.152344 883.105469 1735.085938 882.210938 1733.992188 C 881.316406 1732.902344 880.449219 1731.792969 879.605469 1730.65625 C 878.765625 1729.523438 877.953125 1728.371094 877.171875 1727.199219 C 876.386719 1726.023438 875.632812 1724.832031 874.90625 1723.625 C 874.179688 1722.414062 873.484375 1721.1875 872.820312 1719.941406 C 872.15625 1718.695312 871.519531 1717.4375 870.917969 1716.160156 C 870.316406 1714.886719 869.742188 1713.597656 869.203125 1712.292969 C 868.664062 1710.988281 868.15625 1709.671875 867.679688 1708.34375 C 867.203125 1707.015625 866.761719 1705.675781 866.351562 1704.328125 C 865.941406 1702.976562 865.566406 1701.617188 865.222656 1700.25 C 864.882812 1698.878906 864.574219 1697.503906 864.296875 1696.121094 C 864.023438 1694.734375 863.78125 1693.347656 863.574219 1691.949219 C 863.367188 1690.554688 863.195312 1689.15625 863.054688 1687.75 C 862.917969 1686.347656 862.8125 1684.941406 862.746094 1683.53125 C 862.675781 1682.121094 862.640625 1680.710938 862.640625 1679.300781 C 862.640625 1677.890625 862.675781 1676.480469 862.746094 1675.070312 C 862.8125 1673.660156 862.917969 1672.253906 863.054688 1670.851562 C 863.195312 1669.445312 863.367188 1668.046875 863.574219 1666.648438 C 863.78125 1665.253906 864.023438 1663.863281 864.296875 1662.480469 C 864.574219 1661.097656 864.882812 1659.71875 865.222656 1658.351562 C 865.566406 1656.984375 865.941406 1655.625 866.351562 1654.273438 C 866.761719 1652.921875 867.203125 1651.585938 867.679688 1650.253906 C 868.15625 1648.925781 868.664062 1647.609375 869.203125 1646.308594 C 869.742188 1645.003906 870.316406 1643.714844 870.917969 1642.4375 C 871.519531 1641.164062 872.15625 1639.902344 872.820312 1638.660156 C 873.484375 1637.414062 874.179688 1636.1875 874.90625 1634.976562 C 875.632812 1633.765625 876.386719 1632.574219 877.171875 1631.402344 C 877.953125 1630.230469 878.765625 1629.074219 879.605469 1627.941406 C 880.449219 1626.808594 881.316406 1625.699219 882.210938 1624.605469 C 883.105469 1623.515625 884.027344 1622.449219 884.972656 1621.402344 C 885.921875 1620.355469 886.894531 1619.335938 887.890625 1618.335938 C 888.890625 1617.339844 889.910156 1616.367188 890.957031 1615.417969 C 892.003906 1614.472656 893.070312 1613.550781 894.160156 1612.65625 C 895.25 1611.761719 896.363281 1610.894531 897.496094 1610.050781 C 898.628906 1609.210938 899.785156 1608.398438 900.957031 1607.617188 C 902.128906 1606.832031 903.320312 1606.078125 904.53125 1605.351562 C 905.742188 1604.625 906.96875 1603.929688 908.214844 1603.265625 C 909.457031 1602.601562 910.71875 1601.96875 911.992188 1601.363281 C 913.269531 1600.761719 914.558594 1600.1875 915.863281 1599.648438 C 917.164062 1599.109375 918.480469 1598.601562 919.808594 1598.125 C 921.136719 1597.652344 922.476562 1597.207031 923.828125 1596.796875 C 925.179688 1596.390625 926.539062 1596.011719 927.90625 1595.671875 C 929.273438 1595.328125 930.652344 1595.019531 932.035156 1594.742188 C 933.417969 1594.46875 934.808594 1594.226562 936.203125 1594.019531 C 937.601562 1593.8125 939 1593.640625 940.402344 1593.5 C 941.808594 1593.363281 943.214844 1593.257812 944.625 1593.191406 C 946.035156 1593.121094 947.445312 1593.085938 948.855469 1593.085938 C 950.265625 1593.085938 951.675781 1593.121094 953.085938 1593.191406 C 954.496094 1593.257812 955.902344 1593.363281 957.304688 1593.5 C 958.710938 1593.640625 960.109375 1593.8125 961.503906 1594.019531 C 962.902344 1594.226562 964.289062 1594.46875 965.675781 1594.742188 C 967.058594 1595.019531 968.433594 1595.328125 969.804688 1595.671875 C 971.171875 1596.011719 972.53125 1596.390625 973.882812 1596.796875 C 975.230469 1597.207031 976.570312 1597.652344 977.898438 1598.125 C 979.226562 1598.601562 980.542969 1599.109375 981.847656 1599.648438 C 983.152344 1600.1875 984.441406 1600.761719 985.714844 1601.363281 C 986.992188 1601.96875 988.25 1602.601562 989.496094 1603.265625 C 990.738281 1603.929688 991.96875 1604.625 993.175781 1605.351562 C 994.386719 1606.078125 995.578125 1606.832031 996.753906 1607.617188 C 997.925781 1608.398438 999.078125 1609.210938 1000.210938 1610.050781 C 1001.34375 1610.894531 1002.457031 1611.761719 1003.546875 1612.65625 C 1004.640625 1613.550781 1005.707031 1614.472656 1006.753906 1615.417969 C 1007.796875 1616.367188 1008.820312 1617.339844 1009.816406 1618.335938 C 1010.816406 1619.335938 1011.789062 1620.355469 1012.734375 1621.402344 C 1013.683594 1622.449219 1014.605469 1623.515625 1015.5 1624.605469 C 1016.394531 1625.699219 1017.261719 1626.808594 1018.101562 1627.941406 C 1018.941406 1629.074219 1019.753906 1630.230469 1020.539062 1631.402344 C 1021.324219 1632.574219 1022.078125 1633.765625 1022.804688 1634.976562 C 1023.527344 1636.1875 1024.222656 1637.414062 1024.886719 1638.660156 C 1025.554688 1639.902344 1026.1875 1641.164062 1026.792969 1642.4375 C 1027.394531 1643.714844 1027.964844 1645.003906 1028.507812 1646.308594 C 1029.046875 1647.609375 1029.554688 1648.925781 1030.027344 1650.253906 C 1030.503906 1651.585938 1030.945312 1652.921875 1031.355469 1654.273438 C 1031.765625 1655.625 1032.140625 1656.984375 1032.484375 1658.351562 C 1032.828125 1659.71875 1033.136719 1661.097656 1033.414062 1662.480469 C 1033.6875 1663.863281 1033.929688 1665.253906 1034.136719 1666.648438 C 1034.34375 1668.046875 1034.515625 1669.445312 1034.652344 1670.851562 C 1034.792969 1672.253906 1034.894531 1673.660156 1034.964844 1675.070312 C 1035.035156 1676.480469 1035.070312 1677.890625 1035.070312 1679.300781 Z M 1035.070312 1679.300781 " fill-opacity="1" fill-rule="nonzero"/></g><g clip-path="url(#84fa621226)"><g clip-path="url(#b3fee49b02)"><path fill="url(#89ac258fb0)" d="M 898.324219 1605.246094 L 898.324219 1753.46875 L 999.382812 1753.46875 L 999.382812 1605.246094 Z M 898.324219 1605.246094 " fill-rule="nonzero"/></g></g><path fill="#ffcc00" d="M 1558.527344 1283.507812 C 1419.550781 1283.507812 1306.5 1170.457031 1306.5 1031.480469 C 1306.5 892.503906 1419.550781 779.453125 1558.527344 779.453125 C 1649.054688 779.453125 1730.527344 826.421875 1776.429688 905.140625 C 1799.808594 945.222656 1786.273438 996.660156 1746.195312 1020.039062 C 1706.078125 1043.417969 1654.675781 1029.800781 1631.292969 989.804688 C 1615.828125 963.308594 1588.636719 947.472656 1558.527344 947.472656 C 1512.210938 947.472656 1474.515625 985.167969 1474.515625 1031.480469 C 1474.515625 1077.796875 1512.210938 1115.488281 1558.527344 1115.488281 C 1604.917969 1115.488281 1642.535156 1153.109375 1642.535156 1199.5 C 1642.535156 1245.890625 1604.917969 1283.507812 1558.527344 1283.507812 Z M 1558.527344 1283.507812 " fill-opacity="1" fill-rule="nonzero"/><path fill="#ffcc00" d="M 1558.527344 1619.542969 C 1468 1619.542969 1386.527344 1572.574219 1340.625 1493.859375 C 1317.246094 1453.777344 1330.777344 1402.339844 1370.859375 1378.960938 C 1410.9375 1355.621094 1462.378906 1369.195312 1485.757812 1409.195312 C 1501.222656 1435.691406 1528.417969 1451.527344 1558.527344 1451.527344 C 1604.839844 1451.527344 1642.535156 1413.832031 1642.535156 1367.515625 C 1642.535156 1321.203125 1604.839844 1283.507812 1558.527344 1283.507812 C 1512.136719 1283.507812 1474.515625 1245.890625 1474.515625 1199.5 C 1474.515625 1153.109375 1512.136719 1115.488281 1558.527344 1115.488281 C 1697.503906 1115.488281 1810.554688 1228.539062 1810.554688 1367.515625 C 1810.554688 1506.492188 1697.503906 1619.542969 1558.527344 1619.542969 Z M 1558.527344 1619.542969 " fill-opacity="1" fill-rule="nonzero"/><path fill="#ffcc00" d="M 1558.527344 947.472656 C 1512.136719 947.472656 1474.515625 909.851562 1474.515625 863.464844 L 1474.515625 779.453125 C 1474.515625 733.066406 1512.136719 695.445312 1558.527344 695.445312 C 1604.917969 695.445312 1642.535156 733.066406 1642.535156 779.453125 L 1642.535156 863.464844 C 1642.535156 909.851562 1604.917969 947.472656 1558.527344 947.472656 Z M 1558.527344 947.472656 " fill-opacity="1" fill-rule="nonzero"/><path fill="#ffcc00" d="M 1558.527344 1703.554688 C 1512.136719 1703.554688 1474.515625 1665.933594 1474.515625 1619.542969 L 1474.515625 1535.535156 C 1474.515625 1489.144531 1512.136719 1451.527344 1558.527344 1451.527344 C 1604.917969 1451.527344 1642.535156 1489.144531 1642.535156 1535.535156 L 1642.535156 1619.542969 C 1642.535156 1665.933594 1604.917969 1703.554688 1558.527344 1703.554688 Z M 1558.527344 1703.554688 " fill-opacity="1" fill-rule="nonzero"/><g clip-path="url(#675f07052d)"><path fill="#ffcc00" d="M 1558.527344 2039.589844 C 1095.285156 2039.589844 718.4375 1662.742188 718.4375 1199.5 C 718.4375 736.257812 1095.285156 359.410156 1558.527344 359.410156 C 2021.769531 359.410156 2398.617188 736.257812 2398.617188 1199.5 C 2398.617188 1662.742188 2021.769531 2039.589844 1558.527344 2039.589844 Z M 1558.527344 527.425781 C 1187.953125 527.425781 886.453125 828.925781 886.453125 1199.5 C 886.453125 1570.070312 1187.953125 1871.570312 1558.527344 1871.570312 C 1929.097656 1871.570312 2230.597656 1570.070312 2230.597656 1199.5 C 2230.597656 828.925781 1929.097656 527.425781 1558.527344 527.425781 Z M 1558.527344 527.425781 " fill-opacity="1" fill-rule="nonzero"/></g><path fill="#ffcc00" d="M 987.28125 1787.5625 L 298.390625 1787.5625 C 252.003906 1787.5625 214.382812 1749.941406 214.382812 1703.554688 C 214.382812 1657.164062 252.003906 1619.542969 298.390625 1619.542969 L 987.28125 1619.542969 C 1033.671875 1619.542969 1071.292969 1657.164062 1071.292969 1703.554688 C 1071.292969 1749.941406 1033.671875 1787.5625 987.28125 1787.5625 Z M 987.28125 1787.5625 " fill-opacity="1" fill-rule="nonzero"/><path fill="#ffcc00" d="M 820.945312 1115.488281 L 130.375 1115.488281 C 83.984375 1115.488281 46.367188 1077.871094 46.367188 1031.480469 C 46.367188 985.089844 83.984375 947.472656 130.375 947.472656 L 820.945312 947.472656 C 867.335938 947.472656 904.953125 985.089844 904.953125 1031.480469 C 904.953125 1077.871094 867.34375 1115.488281 820.945312 1115.488281 Z M 820.945312 1115.488281 " fill-opacity="1" fill-rule="nonzero"/><path fill="#ffcc00" d="M 820.945312 1451.527344 L 466.410156 1451.527344 C 420.019531 1451.527344 382.402344 1413.90625 382.402344 1367.515625 C 382.402344 1321.128906 420.019531 1283.507812 466.410156 1283.507812 L 820.945312 1283.507812 C 867.335938 1283.507812 904.953125 1321.128906 904.953125 1367.515625 C 904.953125 1413.90625 867.34375 1451.527344 820.945312 1451.527344 Z M 820.945312 1451.527344 " fill-opacity="1" fill-rule="nonzero"/><path fill="#ffcc00" d="M 987.28125 779.453125 L 634.429688 779.453125 C 588.039062 779.453125 550.417969 741.835938 550.417969 695.445312 C 550.417969 649.054688 588.039062 611.4375 634.429688 611.4375 L 987.28125 611.4375 C 1033.671875 611.4375 1071.292969 649.054688 1071.292969 695.445312 C 1071.292969 741.835938 1033.671875 779.453125 987.28125 779.453125 Z M 987.28125 779.453125 " fill-opacity="1" fill-rule="nonzero"/><path fill="#ffcc00" d="M 298.390625 779.453125 L 130.375 779.453125 C 83.984375 779.453125 46.367188 741.835938 46.367188 695.445312 C 46.367188 649.054688 83.984375 611.4375 130.375 611.4375 L 298.390625 611.4375 C 344.78125 611.4375 382.402344 649.054688 382.402344 695.445312 C 382.402344 741.835938 344.78125 779.453125 298.390625 779.453125 Z M 298.390625 779.453125 " fill-opacity="1" fill-rule="nonzero"/></svg>