<svg xmlns="http://www.w3.org/2000/svg" xmlns:xlink="http://www.w3.org/1999/xlink" width="1280" zoomAndPan="magnify" viewBox="0 0 960 449.999984" height="600" preserveAspectRatio="xMidYMid meet" version="1.0"><defs><g/><clipPath id="72f141fcfb"><path d="M 0 19.367188 L 922.71875 19.367188 L 922.71875 269.066406 L 0 269.066406 Z M 0 19.367188 " clip-rule="nonzero"/></clipPath><clipPath id="3977abcfaa"><path d="M 7.742188 185.789062 C 3.066406 173.027344 -0.00390625 158.433594 -0.00390625 144.152344 C -0.00390625 129.867188 2.628906 116.121094 7.304688 103.453125 C 7.449219 103.183594 7.449219 102.914062 7.597656 102.644531 C 26.304688 55.078125 75.707031 20.042969 146.609375 19.367188 L 884.097656 19.367188 C 894.4375 19.367188 904.359375 23.476562 911.671875 30.789062 C 918.988281 38.105469 923.097656 48.023438 923.097656 58.367188 L 923.097656 230.066406 C 923.097656 240.410156 918.988281 250.332031 911.671875 257.644531 C 904.359375 264.960938 894.4375 269.066406 884.097656 269.066406 L 147.1875 269.066406 C 75.414062 268.394531 26.011719 233.898438 7.742188 185.789062 Z M 7.742188 185.789062 " clip-rule="nonzero"/></clipPath><linearGradient x1="-0.00000671405" gradientTransform="matrix(0, -0.975393, 0.975393, 0, -0.00948586, 269.06795)" y1="473.194" x2="255.999991" gradientUnits="userSpaceOnUse" y2="473.194" id="b60295256e"><stop stop-opacity="1" stop-color="rgb(6.698608%, 17.599487%, 20.399475%)" offset="0"/><stop stop-opacity="1" stop-color="rgb(6.593323%, 17.611694%, 20.513916%)" offset="0.03125"/><stop stop-opacity="1" stop-color="rgb(6.384277%, 17.636108%, 20.74585%)" offset="0.0625"/><stop stop-opacity="1" stop-color="rgb(6.175232%, 17.662048%, 20.976257%)" offset="0.09375"/><stop stop-opacity="1" stop-color="rgb(5.966187%, 17.686462%, 21.208191%)" offset="0.125"/><stop stop-opacity="1" stop-color="rgb(5.757141%, 17.710876%, 21.440125%)" offset="0.15625"/><stop stop-opacity="1" stop-color="rgb(5.54657%, 17.736816%, 21.670532%)" offset="0.1875"/><stop stop-opacity="1" stop-color="rgb(5.337524%, 17.76123%, 21.902466%)" offset="0.21875"/><stop stop-opacity="1" stop-color="rgb(5.128479%, 17.78717%, 22.132874%)" offset="0.25"/><stop stop-opacity="1" stop-color="rgb(4.919434%, 17.811584%, 22.364807%)" offset="0.28125"/><stop stop-opacity="1" stop-color="rgb(4.708862%, 17.835999%, 22.595215%)" offset="0.3125"/><stop stop-opacity="1" stop-color="rgb(4.499817%, 17.861938%, 22.827148%)" offset="0.34375"/><stop stop-opacity="1" stop-color="rgb(4.290771%, 17.886353%, 23.057556%)" offset="0.375"/><stop stop-opacity="1" stop-color="rgb(4.081726%, 17.910767%, 23.28949%)" offset="0.40625"/><stop stop-opacity="1" stop-color="rgb(3.872681%, 17.936707%, 23.521423%)" offset="0.4375"/><stop stop-opacity="1" stop-color="rgb(3.662109%, 17.961121%, 23.751831%)" offset="0.46875"/><stop stop-opacity="1" stop-color="rgb(3.453064%, 17.987061%, 23.983765%)" offset="0.5"/><stop stop-opacity="1" stop-color="rgb(3.244019%, 18.011475%, 24.214172%)" offset="0.53125"/><stop stop-opacity="1" stop-color="rgb(3.034973%, 18.035889%, 24.446106%)" offset="0.5625"/><stop stop-opacity="1" stop-color="rgb(2.825928%, 18.061829%, 24.676514%)" offset="0.59375"/><stop stop-opacity="1" stop-color="rgb(2.615356%, 18.086243%, 24.908447%)" offset="0.625"/><stop stop-opacity="1" stop-color="rgb(2.406311%, 18.112183%, 25.138855%)" offset="0.65625"/><stop stop-opacity="1" stop-color="rgb(2.197266%, 18.136597%, 25.370789%)" offset="0.6875"/><stop stop-opacity="1" stop-color="rgb(1.98822%, 18.161011%, 25.602722%)" offset="0.71875"/><stop stop-opacity="1" stop-color="rgb(1.777649%, 18.186951%, 25.83313%)" offset="0.75"/><stop stop-opacity="1" stop-color="rgb(1.568604%, 18.211365%, 26.065063%)" offset="0.78125"/><stop stop-opacity="1" stop-color="rgb(1.359558%, 18.235779%, 26.295471%)" offset="0.8125"/><stop stop-opacity="1" stop-color="rgb(1.150513%, 18.261719%, 26.527405%)" offset="0.84375"/><stop stop-opacity="1" stop-color="rgb(0.941467%, 18.286133%, 26.757812%)" offset="0.875"/><stop stop-opacity="1" stop-color="rgb(0.730896%, 18.312073%, 26.989746%)" offset="0.90625"/><stop stop-opacity="1" stop-color="rgb(0.521851%, 18.336487%, 27.220154%)" offset="0.9375"/><stop stop-opacity="1" stop-color="rgb(0.312805%, 18.360901%, 27.452087%)" offset="0.96875"/><stop stop-opacity="1" stop-color="rgb(0.10376%, 18.386841%, 27.684021%)" offset="1"/></linearGradient><clipPath id="74fa9562c8"><path d="M 134 32.46875 L 358.5 32.46875 L 358.5 255.96875 L 134 255.96875 Z M 134 32.46875 " clip-rule="nonzero"/></clipPath></defs><g clip-path="url(#72f141fcfb)"><g clip-path="url(#3977abcfaa)"><path fill="url(#b60295256e)" d="M 0 269.066406 L 922.71875 269.066406 L 922.71875 19.367188 L 0 19.367188 Z M 0 269.066406 " fill-rule="nonzero"/></g></g><g fill="#ffffff" fill-opacity="1"><g transform="translate(364.176397, 240.940316)"><g><path d="M 146.3125 0 L 10.4375 0 L 10.4375 -18.671875 L 113.65625 -174.046875 L 13.71875 -174.046875 L 13.71875 -196 L 143.578125 -196 L 143.578125 -177.34375 L 40.359375 -21.96875 L 146.3125 -21.96875 Z M 146.3125 0 "/></g></g></g><g fill="#ffffff" fill-opacity="1"><g transform="translate(543.15601, 240.940316)"><g><path d="M 149.609375 0 L 126 -60.671875 L 48.3125 -60.671875 L 24.984375 0 L 0 0 L 76.59375 -196.828125 L 98.828125 -196.828125 L 175.140625 0 Z M 118.59375 -82.625 L 96.625 -141.921875 C 96.082031 -143.390625 95.171875 -146.046875 93.890625 -149.890625 C 92.609375 -153.734375 91.367188 -157.710938 90.171875 -161.828125 C 88.984375 -165.941406 88.023438 -169.097656 87.296875 -171.296875 C 85.828125 -165.617188 84.316406 -160.082031 82.765625 -154.6875 C 81.210938 -149.289062 79.882812 -145.035156 78.78125 -141.921875 L 56.546875 -82.625 Z M 118.59375 -82.625 "/></g></g></g><g fill="#ffffff" fill-opacity="1"><g transform="translate(740.527682, 240.940316)"><g><path d="M 78.515625 -196 C 104.128906 -196 122.789062 -190.96875 134.5 -180.90625 C 146.21875 -170.84375 152.078125 -156.660156 152.078125 -138.359375 C 152.078125 -127.554688 149.648438 -117.441406 144.796875 -108.015625 C 139.953125 -98.597656 131.8125 -90.957031 120.375 -85.09375 C 108.9375 -79.238281 93.425781 -76.3125 73.84375 -76.3125 L 51.328125 -76.3125 L 51.328125 0 L 26.625 0 L 26.625 -196 Z M 76.3125 -174.859375 L 51.328125 -174.859375 L 51.328125 -97.453125 L 71.09375 -97.453125 C 89.757812 -97.453125 103.664062 -100.472656 112.8125 -106.515625 C 121.96875 -112.554688 126.546875 -122.804688 126.546875 -137.265625 C 126.546875 -149.890625 122.472656 -159.3125 114.328125 -165.53125 C 106.191406 -171.75 93.519531 -174.859375 76.3125 -174.859375 Z M 76.3125 -174.859375 "/></g></g></g><path fill="#ffcc00" d="M 246.273438 155.390625 C 227.789062 155.390625 212.75 140.355469 212.75 121.867188 C 212.75 103.378906 227.789062 88.34375 246.273438 88.34375 C 258.316406 88.34375 269.152344 94.589844 275.261719 105.0625 C 278.371094 110.394531 276.570312 117.234375 271.238281 120.34375 C 265.902344 123.457031 259.0625 121.644531 255.953125 116.324219 C 253.898438 112.800781 250.28125 110.691406 246.273438 110.691406 C 240.113281 110.691406 235.097656 115.707031 235.097656 121.867188 C 235.097656 128.027344 240.113281 133.042969 246.273438 133.042969 C 252.445312 133.042969 257.449219 138.046875 257.449219 144.21875 C 257.449219 150.386719 252.445312 155.390625 246.273438 155.390625 Z M 246.273438 155.390625 " fill-opacity="1" fill-rule="nonzero"/><path fill="#ffcc00" d="M 246.273438 200.09375 C 234.230469 200.09375 223.394531 193.84375 217.289062 183.375 C 214.179688 178.042969 215.980469 171.199219 221.308594 168.089844 C 226.640625 164.984375 233.484375 166.789062 236.59375 172.109375 C 238.652344 175.636719 242.269531 177.742188 246.273438 177.742188 C 252.433594 177.742188 257.449219 172.726562 257.449219 166.566406 C 257.449219 160.40625 252.433594 155.390625 246.273438 155.390625 C 240.101562 155.390625 235.097656 150.386719 235.097656 144.21875 C 235.097656 138.046875 240.101562 133.042969 246.273438 133.042969 C 264.761719 133.042969 279.800781 148.082031 279.800781 166.566406 C 279.800781 185.054688 264.761719 200.09375 246.273438 200.09375 Z M 246.273438 200.09375 " fill-opacity="1" fill-rule="nonzero"/><path fill="#ffcc00" d="M 246.273438 110.691406 C 240.101562 110.691406 235.097656 105.6875 235.097656 99.515625 L 235.097656 88.34375 C 235.097656 82.171875 240.101562 77.167969 246.273438 77.167969 C 252.445312 77.167969 257.449219 82.171875 257.449219 88.34375 L 257.449219 99.515625 C 257.449219 105.6875 252.445312 110.691406 246.273438 110.691406 Z M 246.273438 110.691406 " fill-opacity="1" fill-rule="nonzero"/><path fill="#ffcc00" d="M 246.273438 211.265625 C 240.101562 211.265625 235.097656 206.261719 235.097656 200.09375 L 235.097656 188.917969 C 235.097656 182.746094 240.101562 177.742188 246.273438 177.742188 C 252.445312 177.742188 257.449219 182.746094 257.449219 188.917969 L 257.449219 200.09375 C 257.449219 206.261719 252.445312 211.265625 246.273438 211.265625 Z M 246.273438 211.265625 " fill-opacity="1" fill-rule="nonzero"/><g clip-path="url(#74fa9562c8)"><path fill="#ffcc00" d="M 246.273438 255.96875 C 184.652344 255.96875 134.523438 205.839844 134.523438 144.21875 C 134.523438 82.597656 184.652344 32.46875 246.273438 32.46875 C 307.894531 32.46875 358.023438 82.597656 358.023438 144.21875 C 358.023438 205.839844 307.894531 255.96875 246.273438 255.96875 Z M 246.273438 54.816406 C 196.980469 54.816406 156.875 94.921875 156.875 144.21875 C 156.875 193.511719 196.980469 233.617188 246.273438 233.617188 C 295.566406 233.617188 335.675781 193.511719 335.675781 144.21875 C 335.675781 94.921875 295.566406 54.816406 246.273438 54.816406 Z M 246.273438 54.816406 " fill-opacity="1" fill-rule="nonzero"/></g><path fill="#ffcc00" d="M 170.285156 222.441406 L 78.648438 222.441406 C 72.476562 222.441406 67.472656 217.4375 67.472656 211.265625 C 67.472656 205.097656 72.476562 200.09375 78.648438 200.09375 L 170.285156 200.09375 C 176.457031 200.09375 181.460938 205.097656 181.460938 211.265625 C 181.460938 217.4375 176.457031 222.441406 170.285156 222.441406 Z M 170.285156 222.441406 " fill-opacity="1" fill-rule="nonzero"/><path fill="#ffcc00" d="M 148.160156 133.042969 L 56.300781 133.042969 C 50.128906 133.042969 45.125 128.039062 45.125 121.867188 C 45.125 115.695312 50.128906 110.691406 56.300781 110.691406 L 148.160156 110.691406 C 154.332031 110.691406 159.335938 115.695312 159.335938 121.867188 C 159.335938 128.039062 154.332031 133.042969 148.160156 133.042969 Z M 148.160156 133.042969 " fill-opacity="1" fill-rule="nonzero"/><path fill="#ffcc00" d="M 148.160156 177.742188 L 101 177.742188 C 94.828125 177.742188 89.824219 172.738281 89.824219 166.566406 C 89.824219 160.398438 94.828125 155.390625 101 155.390625 L 148.160156 155.390625 C 154.332031 155.390625 159.335938 160.398438 159.335938 166.566406 C 159.335938 172.738281 154.332031 177.742188 148.160156 177.742188 Z M 148.160156 177.742188 " fill-opacity="1" fill-rule="nonzero"/><path fill="#ffcc00" d="M 170.285156 88.34375 L 123.347656 88.34375 C 117.179688 88.34375 112.175781 83.339844 112.175781 77.167969 C 112.175781 70.996094 117.179688 65.992188 123.347656 65.992188 L 170.285156 65.992188 C 176.457031 65.992188 181.460938 70.996094 181.460938 77.167969 C 181.460938 83.339844 176.457031 88.34375 170.285156 88.34375 Z M 170.285156 88.34375 " fill-opacity="1" fill-rule="nonzero"/><path fill="#ffcc00" d="M 78.648438 88.34375 L 56.300781 88.34375 C 50.128906 88.34375 45.125 83.339844 45.125 77.167969 C 45.125 70.996094 50.128906 65.992188 56.300781 65.992188 L 78.648438 65.992188 C 84.820312 65.992188 89.824219 70.996094 89.824219 77.167969 C 89.824219 83.339844 84.820312 88.34375 78.648438 88.34375 Z M 78.648438 88.34375 " fill-opacity="1" fill-rule="nonzero"/><g fill="#4697c4" fill-opacity="1"><g transform="translate(83.519725, 397.720018)"><g><path d="M 53.984375 0 L 23.1875 -82.03125 L 22.671875 -82.03125 C 22.929688 -79.320312 23.144531 -75.671875 23.3125 -71.078125 C 23.488281 -66.492188 23.578125 -61.710938 23.578125 -56.734375 L 23.578125 0 L 12.703125 0 L 12.703125 -93.5625 L 30.140625 -93.5625 L 58.96875 -16.90625 L 59.484375 -16.90625 L 88.84375 -93.5625 L 106.140625 -93.5625 L 106.140625 0 L 94.46875 0 L 94.46875 -57.515625 C 94.46875 -62.066406 94.578125 -66.566406 94.796875 -71.015625 C 95.015625 -75.472656 95.210938 -79.097656 95.390625 -81.890625 L 94.859375 -81.890625 L 63.6875 0 Z M 53.984375 0 "/></g></g></g><g fill="#4697c4" fill-opacity="1"><g transform="translate(274.431033, 397.720018)"><g><path d="M 94.34375 -46.90625 C 94.34375 -37.207031 92.703125 -28.753906 89.421875 -21.546875 C 86.148438 -14.347656 81.300781 -8.738281 74.875 -4.71875 C 68.457031 -0.695312 60.578125 1.3125 51.234375 1.3125 C 41.535156 1.3125 33.472656 -0.695312 27.046875 -4.71875 C 20.628906 -8.738281 15.847656 -14.375 12.703125 -21.625 C 9.566406 -28.875 8 -37.347656 8 -47.046875 C 8 -56.566406 9.566406 -64.925781 12.703125 -72.125 C 15.847656 -79.332031 20.628906 -84.945312 27.046875 -88.96875 C 33.472656 -92.988281 41.578125 -95 51.359375 -95 C 60.710938 -95 68.578125 -93.007812 74.953125 -89.03125 C 81.328125 -85.0625 86.148438 -79.472656 89.421875 -72.265625 C 92.703125 -65.054688 94.34375 -56.601562 94.34375 -46.90625 Z M 20.4375 -46.90625 C 20.4375 -35.113281 22.925781 -25.832031 27.90625 -19.0625 C 32.882812 -12.289062 40.660156 -8.90625 51.234375 -8.90625 C 61.804688 -8.90625 69.554688 -12.289062 74.484375 -19.0625 C 79.421875 -25.832031 81.890625 -35.113281 81.890625 -46.90625 C 81.890625 -58.695312 79.441406 -67.929688 74.546875 -74.609375 C 69.660156 -81.296875 61.929688 -84.640625 51.359375 -84.640625 C 40.703125 -84.640625 32.882812 -81.296875 27.90625 -74.609375 C 22.925781 -67.929688 20.4375 -58.695312 20.4375 -46.90625 Z M 20.4375 -46.90625 "/></g></g></g><g fill="#4697c4" fill-opacity="1"><g transform="translate(448.832892, 397.720018)"><g><path d="M 86.875 0 L 73.109375 0 L 23.0625 -77.703125 L 22.53125 -77.703125 C 22.707031 -74.640625 22.925781 -70.835938 23.1875 -66.296875 C 23.445312 -61.753906 23.578125 -57.082031 23.578125 -52.28125 L 23.578125 0 L 12.703125 0 L 12.703125 -93.5625 L 26.34375 -93.5625 L 76.265625 -16.109375 L 76.78125 -16.109375 C 76.695312 -17.515625 76.585938 -19.613281 76.453125 -22.40625 C 76.328125 -25.195312 76.195312 -28.226562 76.0625 -31.5 C 75.925781 -34.78125 75.859375 -37.863281 75.859375 -40.75 L 75.859375 -93.5625 L 86.875 -93.5625 Z M 86.875 0 "/></g></g></g><g fill="#4697c4" fill-opacity="1"><g transform="translate(620.483151, 397.720018)"><g><path d="M 64.984375 0 L 12.703125 0 L 12.703125 -93.5625 L 64.984375 -93.5625 L 64.984375 -83.203125 L 24.5 -83.203125 L 24.5 -53.984375 L 62.640625 -53.984375 L 62.640625 -43.765625 L 24.5 -43.765625 L 24.5 -10.34375 L 64.984375 -10.34375 Z M 64.984375 0 "/></g></g></g><g fill="#4697c4" fill-opacity="1"><g transform="translate(765.403885, 397.720018)"><g><path d="M 37.078125 -47.5625 L 61.453125 -93.5625 L 74.15625 -93.5625 L 42.984375 -36.296875 L 42.984375 0 L 31.1875 0 L 31.1875 -35.765625 L 0 -93.5625 L 12.84375 -93.5625 Z M 37.078125 -47.5625 "/></g></g></g></svg>